<svg width="48" height="48" viewBox="0 0 48 48" fill="none" xmlns="http://www.w3.org/2000/svg">
<g id="Group">
<path id="Vector" d="M24 44C12.954 44 4 35.046 4 24C4 12.954 12.954 4 24 4C35.046 4 44 12.954 44 24C44 35.046 35.046 44 24 44ZM17.78 26.34L17.806 26.326L19.546 32.066C19.77 32.688 20.078 32.8 20.452 32.748C20.828 32.698 21.026 32.496 21.272 32.26L23.648 29.964L28.748 33.74C29.68 34.254 30.35 33.988 30.582 32.876L33.896 17.232C34.262 15.776 33.622 15.192 32.492 15.656L13.026 23.176C11.698 23.708 11.706 24.452 12.786 24.782L17.78 26.342V26.34Z" fill="#B8AABB"/>
</g>
</svg>
